<svg width="16" height="16" viewBox="0 0 16 16" fill="none" xmlns="http://www.w3.org/2000/svg">
<g id="checkmark">
<path id="Vector" d="M6.92308 11.3334C6.8547 11.3331 6.78709 11.3173 6.72446 11.2868C6.66183 11.2563 6.60551 11.2119 6.55901 11.1562L4.13519 8.29446C4.04458 8.18729 3.99604 8.04456 4.00025 7.89768C4.00446 7.75079 4.06107 7.61177 4.15763 7.51121C4.25419 7.41065 4.38278 7.35678 4.51513 7.36145C4.64747 7.36612 4.77273 7.42895 4.86333 7.53612L6.9181 9.96613L11.1124 4.87363C11.155 4.8148 11.2079 4.76625 11.268 4.73096C11.3281 4.69567 11.394 4.67439 11.4618 4.66842C11.5296 4.66245 11.5977 4.67192 11.6621 4.69625C11.7264 4.72058 11.7856 4.75925 11.836 4.80989C11.8864 4.86053 11.9269 4.92207 11.9551 4.99072C11.9833 5.05938 11.9985 5.13371 11.9999 5.20915C12.0013 5.28458 11.9887 5.35953 11.963 5.42938C11.9373 5.49924 11.8991 5.56253 11.8505 5.61536L7.29214 11.1507C7.24608 11.2073 7.18996 11.2528 7.12731 11.2843C7.06465 11.3157 6.99682 11.3324 6.92807 11.3334H6.92308Z" fill="#292929"/>
</g>
</svg>
